# xmcd
#
# Track frame offsets: 
#        150
#        13928
#        30634
#        48096
#        66829
#        86732
#        105514
#        122816
#        138078
#        153804
#        175689
#        192507
#
# Disc length: 2827 seconds
#
# Revision: 0
# Processed by: cddbd v1.5.2PL0 Copyright (c) Steve Scherf et al.
# Submitted via: ExactAudioCopy v1.0b1
#
DISCID=950b090c
DTITLE=No Hit Wonders Songwriters Tour  - Three Men and a Diva
DYEAR=2004
DGENRE=Country
TTITLE0=Me Without You
TTITLE1=Two Inches Deep
TTITLE2=Say Goodbye
TTITLE3=St Augustine
TTITLE4=Richest Man In the World
TTITLE5=Save the World
TTITLE6=Shampoo
TTITLE7=Tongue Tied
TTITLE8=Hold On Tight
TTITLE9=Love or Goodbye
TTITLE10=The Box
TTITLE11=Stronger
EXTD=
EXTT0=
EXTT1=
EXTT2=
EXTT3=
EXTT4=
EXTT5=
EXTT6=
EXTT7=
EXTT8=
EXTT9=
EXTT10=
EXTT11=
PLAYORDER=
